<svg width="21" height="21" viewBox="0 0 21 21" fill="none" xmlns="http://www.w3.org/2000/svg">
<path d="M16.8333 8.91667V18.0208C16.8333 18.2807 16.7821 18.5381 16.6827 18.7782C16.5832 19.0184 16.4374 19.2365 16.2536 19.4203C16.0699 19.6041 15.8517 19.7499 15.6116 19.8493C15.3714 19.9488 15.1141 20 14.8542 20H2.97917C2.45426 20 1.95085 19.7915 1.57968 19.4203C1.20852 19.0492 1 18.5457 1 18.0208V6.14583C1 5.62093 1.20852 5.11752 1.57968 4.74635C1.95085 4.37519 2.45426 4.16667 2.97917 4.16667H11.2659M14.4583 1H20V6.54167M8.91667 12.0833L19.6042 1.39583" stroke="white" stroke-linecap="round" stroke-linejoin="round"/>
</svg>
